<svg xmlns="http://www.w3.org/2000/svg" viewBox="0 0 495.34 342.62"><defs><style>.cls-1,.cls-9{fill:#263238;}.cls-2,.cls-4{fill:#fff;}.cls-2{opacity:0.6;}.cls-3{opacity:0.1;}.cls-5,.cls-8{fill:#22ba22;}.cls-5,.cls-6{opacity:0.5;}.cls-13,.cls-6{fill:#f9ff00;}.cls-7{fill:none;stroke:#407bff;stroke-miterlimit:10;}.cls-9{font-size:8px;font-family:Lato-Regular, Lato Regular;}.cls-10{letter-spacing:-0.08em;}.cls-11{letter-spacing:0.03em;}.cls-12{letter-spacing:0em;}.cls-14{letter-spacing:-0.01em;}.cls-15{fill:#ff1515;}.cls-16{letter-spacing:0.01em;}.cls-17{letter-spacing:-0.08em;}</style></defs><title>3-2 solar panel</title><g id="Layer_2" data-name="Layer 2"><g id="Character"><rect class="cls-1" x="18.56" y="15.27" width="97.85" height="148.92" transform="translate(-0.42 0.32) rotate(-0.27)"/><rect class="cls-2" x="18.56" y="15.27" width="97.85" height="148.92" transform="translate(-0.42 0.32) rotate(-0.27)"/><rect class="cls-1" x="92.11" y="101.26" width="22.05" height="19.44" transform="translate(-0.52 0.49) rotate(-0.27)"/><rect class="cls-1" x="92.21" y="122.68" width="22.05" height="19.44" transform="translate(-0.62 0.49) rotate(-0.27)"/><rect class="cls-1" x="68.08" y="101.37" width="22.05" height="19.44" transform="translate(-0.52 0.37) rotate(-0.27)"/><rect class="cls-1" x="91.81" y="37" width="22.05" height="19.44" transform="translate(-0.22 0.48) rotate(-0.27)"/><rect class="cls-1" x="68.18" y="122.79" width="22.05" height="19.44" transform="translate(-0.62 0.37) rotate(-0.27)"/><rect class="cls-1" x="92.01" y="79.84" width="22.05" height="19.44" transform="translate(-0.42 0.49) rotate(-0.27)"/><rect class="cls-1" x="91.91" y="58.42" width="22.05" height="19.44" transform="translate(-0.32 0.49) rotate(-0.27)"/><rect class="cls-1" x="20.54" y="80.17" width="21.42" height="19.44" transform="translate(-0.42 0.15) rotate(-0.27)"/><rect class="cls-1" x="20.64" y="101.59" width="21.42" height="19.44" transform="translate(-0.52 0.15) rotate(-0.27)"/><rect class="cls-1" x="20.34" y="37.34" width="21.42" height="19.44" transform="translate(-0.22 0.15) rotate(-0.27)"/><rect class="cls-1" x="20.74" y="123.01" width="21.42" height="19.44" transform="translate(-0.62 0.15) rotate(-0.27)"/><rect class="cls-1" x="20.44" y="58.76" width="21.42" height="19.44" transform="translate(-0.32 0.15) rotate(-0.27)"/><rect class="cls-1" x="91.71" y="17.08" width="22.05" height="17.94" transform="translate(-0.12 0.48) rotate(-0.27)"/><rect class="cls-1" x="92.31" y="144.09" width="22.05" height="17.94" transform="translate(-0.72 0.49) rotate(-0.27)"/><rect class="cls-1" x="20.84" y="144.43" width="21.42" height="17.94" transform="translate(-0.72 0.15) rotate(-0.27)"/><rect class="cls-1" x="20.24" y="17.42" width="21.42" height="17.94" transform="translate(-0.12 0.15) rotate(-0.27)"/><rect class="cls-1" x="43.95" y="80.06" width="22.05" height="19.44" transform="translate(-0.42 0.26) rotate(-0.27)"/><rect class="cls-1" x="44.05" y="101.48" width="22.05" height="19.44" transform="translate(-0.52 0.26) rotate(-0.27)"/><rect class="cls-1" x="67.68" y="17.19" width="22.05" height="17.94" transform="translate(-0.12 0.37) rotate(-0.27)"/><rect class="cls-1" x="68.28" y="144.21" width="22.05" height="17.94" transform="translate(-0.72 0.37) rotate(-0.27)"/><rect class="cls-1" x="67.77" y="37.11" width="22.05" height="19.44" transform="translate(-0.22 0.37) rotate(-0.27)"/><rect class="cls-1" x="67.88" y="58.53" width="22.05" height="19.44" transform="translate(-0.32 0.37) rotate(-0.27)"/><rect class="cls-1" x="44.15" y="122.9" width="22.05" height="19.44" transform="translate(-0.62 0.26) rotate(-0.27)"/><rect class="cls-1" x="44.24" y="144.32" width="22.05" height="17.94" transform="translate(-0.72 0.26) rotate(-0.27)"/><rect class="cls-1" x="43.65" y="17.31" width="22.05" height="17.94" transform="translate(-0.12 0.26) rotate(-0.27)"/><rect class="cls-1" x="67.98" y="79.95" width="22.05" height="19.44" transform="translate(-0.42 0.37) rotate(-0.27)"/><rect class="cls-1" x="43.74" y="37.23" width="22.05" height="19.44" transform="translate(-0.22 0.26) rotate(-0.27)"/><rect class="cls-1" x="43.84" y="58.64" width="22.05" height="19.44" transform="translate(-0.32 0.26) rotate(-0.27)"/><g class="cls-3"><polygon class="cls-4" points="81.34 15.2 18.47 70.63 18.21 15.49 81.34 15.2"/><polygon class="cls-4" points="109.38 15.06 18.59 95.12 18.52 81.7 94.02 15.14 109.38 15.06"/><polygon class="cls-4" points="116.12 27.83 116.15 34.55 18.7 120.46 18.67 113.73 116.12 27.83"/></g><g class="cls-3"><polygon class="cls-4" points="116.7 152.56 116.76 163.95 103.72 164.01 116.7 152.56"/><polygon class="cls-4" points="116.61 133.22 116.66 143.82 93.72 164.06 81.58 164.12 116.61 133.22"/><polygon class="cls-4" points="116.52 113.24 116.54 118.53 64.75 164.2 58.69 164.23 116.52 113.24"/></g><rect class="cls-1" x="252.95" y="11.18" width="97.85" height="148.92" transform="translate(-0.4 1.42) rotate(-0.27)"/><rect class="cls-2" x="252.95" y="11.18" width="97.85" height="148.92" transform="translate(-0.4 1.42) rotate(-0.27)"/><rect class="cls-1" x="326.5" y="97.17" width="22.05" height="19.44" transform="translate(-0.5 1.59) rotate(-0.27)"/><rect class="cls-1" x="326.6" y="118.58" width="22.05" height="19.44" transform="translate(-0.6 1.59) rotate(-0.27)"/><rect class="cls-1" x="302.47" y="97.28" width="22.05" height="19.44" transform="translate(-0.5 1.48) rotate(-0.27)"/><rect class="cls-1" x="326.2" y="32.91" width="22.05" height="19.44" transform="translate(-0.2 1.59) rotate(-0.27)"/><rect class="cls-1" x="302.57" y="118.7" width="22.05" height="19.44" transform="translate(-0.6 1.48) rotate(-0.27)"/><rect class="cls-1" x="326.4" y="75.75" width="22.05" height="19.44" transform="translate(-0.4 1.59) rotate(-0.27)"/><rect class="cls-1" x="326.3" y="54.33" width="22.05" height="19.44" transform="translate(-0.3 1.59) rotate(-0.27)"/><rect class="cls-1" x="254.93" y="76.08" width="21.42" height="19.44" transform="translate(-0.4 1.25) rotate(-0.27)"/><rect class="cls-1" x="255.03" y="97.5" width="21.42" height="19.44" transform="translate(-0.5 1.25) rotate(-0.27)"/><rect class="cls-1" x="254.73" y="33.25" width="21.42" height="19.44" transform="matrix(1, 0, 0, 1, -0.2, 1.25)"/><rect class="cls-1" x="255.13" y="118.92" width="21.42" height="19.44" transform="translate(-0.6 1.25) rotate(-0.27)"/><rect class="cls-1" x="254.83" y="54.67" width="21.42" height="19.44" transform="translate(-0.3 1.25) rotate(-0.27)"/><rect class="cls-1" x="326.1" y="12.99" width="22.05" height="17.94" transform="translate(-0.1 1.59) rotate(-0.27)"/><rect class="cls-1" x="326.7" y="140" width="22.05" height="17.94" transform="translate(-0.7 1.59) rotate(-0.27)"/><rect class="cls-1" x="255.23" y="140.34" width="21.42" height="17.94" transform="translate(-0.7 1.25) rotate(-0.27)"/><rect class="cls-1" x="254.63" y="13.33" width="21.42" height="17.94" transform="translate(-0.1 1.25) rotate(-0.27)"/><rect class="cls-1" x="278.34" y="75.97" width="22.05" height="19.44" transform="translate(-0.4 1.36) rotate(-0.27)"/><rect class="cls-1" x="278.44" y="97.39" width="22.05" height="19.44" transform="translate(-0.5 1.36) rotate(-0.27)"/><rect class="cls-1" x="302.07" y="13.1" width="22.05" height="17.94" transform="translate(-0.1 1.47) rotate(-0.27)"/><rect class="cls-1" x="302.67" y="140.12" width="22.05" height="17.94" transform="translate(-0.7 1.48) rotate(-0.27)"/><rect class="cls-1" x="302.17" y="33.02" width="22.05" height="19.44" transform="translate(-0.2 1.47) rotate(-0.27)"/><rect class="cls-1" x="302.27" y="54.44" width="22.05" height="19.44" transform="translate(-0.3 1.47) rotate(-0.27)"/><rect class="cls-1" x="278.54" y="118.81" width="22.05" height="19.44" transform="translate(-0.6 1.36) rotate(-0.27)"/><rect class="cls-1" x="278.64" y="140.23" width="22.05" height="17.94" transform="translate(-0.7 1.37) rotate(-0.27)"/><rect class="cls-1" x="278.04" y="13.22" width="22.05" height="17.94" transform="translate(-0.1 1.36) rotate(-0.27)"/><rect class="cls-1" x="302.37" y="75.86" width="22.05" height="19.44" transform="matrix(1, 0, 0, 1, -0.4, 1.48)"/><rect class="cls-1" x="278.14" y="33.13" width="22.05" height="19.44" transform="translate(-0.2 1.36) rotate(-0.27)"/><rect class="cls-1" x="278.24" y="54.55" width="22.05" height="19.44" transform="translate(-0.3 1.36) rotate(-0.27)"/><g class="cls-3"><polygon class="cls-4" points="315.73 11.11 252.86 66.54 252.6 11.4 315.73 11.11"/><polygon class="cls-4" points="343.77 10.97 252.98 91.03 252.92 77.61 328.41 11.05 343.77 10.97"/><polygon class="cls-4" points="350.51 23.73 350.54 30.46 253.09 116.37 253.06 109.64 350.51 23.73"/></g><g class="cls-3"><polygon class="cls-4" points="351.1 148.47 351.15 159.86 338.12 159.92 351.1 148.47"/><polygon class="cls-4" points="351 129.13 351.05 139.73 328.11 159.97 315.97 160.03 351 129.13"/><polygon class="cls-4" points="350.91 109.15 350.94 114.44 299.14 160.11 293.08 160.13 350.91 109.15"/></g><rect class="cls-1" x="135.75" y="13.22" width="97.85" height="148.92" transform="translate(-0.41 0.87) rotate(-0.27)"/><rect class="cls-2" x="135.75" y="13.22" width="97.85" height="148.92" transform="translate(-0.41 0.87) rotate(-0.27)"/><rect class="cls-1" x="209.3" y="99.21" width="22.05" height="19.44" transform="translate(-0.51 1.04) rotate(-0.27)"/><rect class="cls-1" x="209.4" y="120.63" width="22.05" height="19.44" transform="translate(-0.61 1.04) rotate(-0.27)"/><rect class="cls-1" x="185.27" y="99.32" width="22.05" height="19.44" transform="translate(-0.51 0.92) rotate(-0.27)"/><rect class="cls-1" x="209" y="34.95" width="22.05" height="19.44" transform="translate(-0.21 1.04) rotate(-0.27)"/><rect class="cls-1" x="185.37" y="120.74" width="22.05" height="19.44" transform="translate(-0.61 0.93) rotate(-0.27)"/><rect class="cls-1" x="209.2" y="77.79" width="22.05" height="19.44" transform="translate(-0.41 1.04) rotate(-0.27)"/><rect class="cls-1" x="209.1" y="56.37" width="22.05" height="19.44" transform="translate(-0.31 1.04) rotate(-0.27)"/><rect class="cls-1" x="137.74" y="78.13" width="21.42" height="19.44" transform="translate(-0.41 0.7) rotate(-0.27)"/><rect class="cls-1" x="137.84" y="99.55" width="21.42" height="19.44" transform="translate(-0.51 0.7) rotate(-0.27)"/><rect class="cls-1" x="137.54" y="35.29" width="21.42" height="19.44" transform="matrix(1, 0, 0, 1, -0.21, 0.7)"/><rect class="cls-1" x="137.94" y="120.97" width="21.42" height="19.44" transform="translate(-0.61 0.7) rotate(-0.27)"/><rect class="cls-1" x="137.64" y="56.71" width="21.42" height="19.44" transform="translate(-0.31 0.7) rotate(-0.27)"/><rect class="cls-1" x="208.9" y="15.04" width="22.05" height="17.94" transform="translate(-0.11 1.03) rotate(-0.27)"/><rect class="cls-1" x="209.5" y="142.05" width="22.05" height="17.94" transform="translate(-0.71 1.04) rotate(-0.27)"/><rect class="cls-1" x="138.04" y="142.39" width="21.42" height="17.94" transform="translate(-0.71 0.7) rotate(-0.27)"/><rect class="cls-1" x="137.44" y="15.37" width="21.42" height="17.94" transform="matrix(1, 0, 0, 1, -0.11, 0.7)"/><rect class="cls-1" x="161.14" y="78.02" width="22.05" height="19.44" transform="translate(-0.41 0.81) rotate(-0.27)"/><rect class="cls-1" x="161.24" y="99.44" width="22.05" height="19.44" transform="translate(-0.51 0.81) rotate(-0.27)"/><rect class="cls-1" x="184.87" y="15.15" width="22.05" height="17.94" transform="translate(-0.11 0.92) rotate(-0.27)"/><rect class="cls-1" x="185.47" y="142.16" width="22.05" height="17.94" transform="translate(-0.71 0.93) rotate(-0.27)"/><rect class="cls-1" x="184.97" y="35.07" width="22.05" height="19.44" transform="translate(-0.21 0.92) rotate(-0.27)"/><rect class="cls-1" x="185.07" y="56.49" width="22.05" height="19.44" transform="translate(-0.31 0.92) rotate(-0.27)"/><rect class="cls-1" x="161.34" y="120.86" width="22.05" height="19.44" transform="translate(-0.61 0.81) rotate(-0.27)"/><rect class="cls-1" x="161.44" y="142.27" width="22.05" height="17.94" transform="translate(-0.71 0.81) rotate(-0.27)"/><rect class="cls-1" x="160.84" y="15.26" width="22.05" height="17.94" transform="translate(-0.11 0.81) rotate(-0.27)"/><rect class="cls-1" x="185.17" y="77.9" width="22.05" height="19.44" transform="matrix(1, 0, 0, 1, -0.41, 0.92)"/><rect class="cls-1" x="160.94" y="35.18" width="22.05" height="19.44" transform="translate(-0.21 0.81) rotate(-0.27)"/><rect class="cls-1" x="161.04" y="56.6" width="22.05" height="19.44" transform="translate(-0.31 0.81) rotate(-0.27)"/><g class="cls-3"><polygon class="cls-4" points="198.54 13.15 135.67 68.58 135.41 13.45 198.54 13.15"/><polygon class="cls-4" points="226.57 13.02 135.78 93.08 135.72 79.66 211.21 13.09 226.57 13.02"/><polygon class="cls-4" points="233.31 25.78 233.34 32.5 135.9 118.41 135.87 111.69 233.31 25.78"/></g><g class="cls-3"><polygon class="cls-4" points="233.9 150.52 233.95 161.91 220.92 161.97 233.9 150.52"/><polygon class="cls-4" points="233.81 131.17 233.86 141.78 210.91 162.01 198.77 162.07 233.81 131.17"/><polygon class="cls-4" points="233.71 111.19 233.74 116.48 181.95 162.15 175.88 162.18 233.71 111.19"/></g><rect class="cls-1" x="20.36" y="180.99" width="97.85" height="148.92" transform="translate(-1.2 0.33) rotate(-0.27)"/><rect class="cls-2" x="20.36" y="180.99" width="97.85" height="148.92" transform="translate(-1.2 0.33) rotate(-0.27)"/><rect class="cls-1" x="93.91" y="266.98" width="22.05" height="19.44" transform="translate(-1.3 0.5) rotate(-0.27)"/><rect class="cls-1" x="94.01" y="288.4" width="22.05" height="19.44" transform="translate(-1.4 0.5) rotate(-0.27)"/><rect class="cls-1" x="69.88" y="267.1" width="22.05" height="19.44" transform="translate(-1.3 0.38) rotate(-0.27)"/><rect class="cls-1" x="93.61" y="202.73" width="22.05" height="19.44" transform="translate(-1 0.49) rotate(-0.27)"/><rect class="cls-1" x="69.98" y="288.51" width="22.05" height="19.44" transform="translate(-1.4 0.38) rotate(-0.27)"/><rect class="cls-1" x="93.81" y="245.56" width="22.05" height="19.44" transform="translate(-1.2 0.5) rotate(-0.27)"/><rect class="cls-1" x="93.71" y="224.14" width="22.05" height="19.44" transform="matrix(1, 0, 0, 1, -1.1, 0.5)"/><rect class="cls-1" x="22.34" y="245.9" width="21.42" height="19.44" transform="translate(-1.2 0.16) rotate(-0.27)"/><rect class="cls-1" x="22.45" y="267.32" width="21.42" height="19.44" transform="translate(-1.3 0.16) rotate(-0.27)"/><rect class="cls-1" x="22.14" y="203.06" width="21.42" height="19.44" transform="translate(-1 0.16) rotate(-0.27)"/><rect class="cls-1" x="22.55" y="288.74" width="21.42" height="19.44" transform="translate(-1.4 0.16) rotate(-0.27)"/><rect class="cls-1" x="22.24" y="224.48" width="21.42" height="19.44" transform="translate(-1.1 0.16) rotate(-0.27)"/><rect class="cls-1" x="93.51" y="182.81" width="22.05" height="17.94" transform="translate(-0.9 0.49) rotate(-0.27)"/><rect class="cls-1" x="94.11" y="309.82" width="22.05" height="17.94" transform="translate(-1.5 0.5) rotate(-0.27)"/><rect class="cls-1" x="22.64" y="310.16" width="21.42" height="17.94" transform="translate(-1.5 0.16) rotate(-0.27)"/><rect class="cls-1" x="22.05" y="183.15" width="21.42" height="17.94" transform="matrix(1, 0, 0, 1, -0.9, 0.16)"/><rect class="cls-1" x="45.75" y="245.79" width="22.05" height="19.44" transform="translate(-1.2 0.27) rotate(-0.27)"/><rect class="cls-1" x="45.85" y="267.21" width="22.05" height="19.44" transform="translate(-1.3 0.27) rotate(-0.27)"/><rect class="cls-1" x="69.48" y="182.92" width="22.05" height="17.94" transform="translate(-0.9 0.38) rotate(-0.27)"/><rect class="cls-1" x="70.08" y="309.93" width="22.05" height="17.94" transform="translate(-1.5 0.39) rotate(-0.27)"/><rect class="cls-1" x="69.58" y="202.84" width="22.05" height="19.44" transform="matrix(1, 0, 0, 1, -1, 0.38)"/><rect class="cls-1" x="69.68" y="224.26" width="22.05" height="19.44" transform="translate(-1.1 0.38) rotate(-0.27)"/><rect class="cls-1" x="45.95" y="288.63" width="22.05" height="19.44" transform="translate(-1.4 0.27) rotate(-0.27)"/><rect class="cls-1" x="46.05" y="310.05" width="22.05" height="17.94" transform="translate(-1.5 0.27) rotate(-0.27)"/><rect class="cls-1" x="45.45" y="183.03" width="22.05" height="17.94" transform="translate(-0.9 0.27) rotate(-0.27)"/><rect class="cls-1" x="69.78" y="245.68" width="22.05" height="19.44" transform="matrix(1, 0, 0, 1, -1.2, 0.38)"/><rect class="cls-1" x="45.55" y="202.95" width="22.05" height="19.44" transform="translate(-1 0.27) rotate(-0.27)"/><rect class="cls-1" x="45.65" y="224.37" width="22.05" height="19.44" transform="translate(-1.1 0.27) rotate(-0.27)"/><g class="cls-3"><polygon class="cls-4" points="83.14 180.92 20.27 236.36 20.02 181.22 83.14 180.92"/><polygon class="cls-4" points="111.18 180.79 20.39 260.85 20.33 247.43 95.82 180.86 111.18 180.79"/><polygon class="cls-4" points="117.92 193.55 117.95 200.27 20.5 286.18 20.47 279.46 117.92 193.55"/></g><g class="cls-3"><polygon class="cls-4" points="118.51 318.29 118.56 329.68 105.53 329.74 118.51 318.29"/><polygon class="cls-4" points="118.42 298.94 118.47 309.55 95.52 329.79 83.38 329.84 118.42 298.94"/><polygon class="cls-4" points="118.32 278.96 118.35 284.26 66.56 329.92 60.49 329.95 118.32 278.96"/></g><rect class="cls-1" x="254.75" y="176.9" width="97.85" height="148.92" transform="translate(-1.18 1.43) rotate(-0.27)"/><rect class="cls-2" x="254.75" y="176.9" width="97.85" height="148.92" transform="translate(-1.18 1.43) rotate(-0.27)"/><rect class="cls-1" x="328.3" y="262.89" width="22.05" height="19.44" transform="translate(-1.28 1.6) rotate(-0.27)"/><rect class="cls-1" x="328.4" y="284.31" width="22.05" height="19.44" transform="translate(-1.38 1.6) rotate(-0.27)"/><rect class="cls-1" x="304.27" y="263" width="22.05" height="19.44" transform="translate(-1.28 1.49) rotate(-0.27)"/><rect class="cls-1" x="328" y="198.63" width="22.05" height="19.44" transform="translate(-0.98 1.6) rotate(-0.27)"/><rect class="cls-1" x="304.37" y="284.42" width="22.05" height="19.44" transform="translate(-1.38 1.49) rotate(-0.27)"/><rect class="cls-1" x="328.2" y="241.47" width="22.05" height="19.44" transform="translate(-1.18 1.6) rotate(-0.27)"/><rect class="cls-1" x="328.1" y="220.05" width="22.05" height="19.44" transform="matrix(1, 0, 0, 1, -1.08, 1.6)"/><rect class="cls-1" x="256.74" y="241.81" width="21.42" height="19.44" transform="translate(-1.18 1.26) rotate(-0.27)"/><rect class="cls-1" x="256.84" y="263.23" width="21.42" height="19.44" transform="translate(-1.28 1.26) rotate(-0.27)"/><rect class="cls-1" x="256.53" y="198.97" width="21.42" height="19.44" transform="translate(-0.98 1.26) rotate(-0.27)"/><rect class="cls-1" x="256.94" y="284.65" width="21.42" height="19.44" transform="translate(-1.38 1.26) rotate(-0.27)"/><rect class="cls-1" x="256.63" y="220.39" width="21.42" height="19.44" transform="translate(-1.08 1.26) rotate(-0.27)"/><rect class="cls-1" x="327.9" y="178.72" width="22.05" height="17.94" transform="translate(-0.88 1.6) rotate(-0.27)"/><rect class="cls-1" x="328.5" y="305.73" width="22.05" height="17.94" transform="translate(-1.48 1.6) rotate(-0.27)"/><rect class="cls-1" x="257.03" y="306.07" width="21.42" height="17.94" transform="translate(-1.48 1.26) rotate(-0.27)"/><rect class="cls-1" x="256.44" y="179.05" width="21.42" height="17.94" transform="translate(-0.88 1.26) rotate(-0.27)"/><rect class="cls-1" x="280.14" y="241.7" width="22.05" height="19.44" transform="translate(-1.18 1.37) rotate(-0.27)"/><rect class="cls-1" x="280.24" y="263.12" width="22.05" height="19.44" transform="translate(-1.28 1.37) rotate(-0.27)"/><rect class="cls-1" x="303.87" y="178.83" width="22.05" height="17.94" transform="translate(-0.88 1.48) rotate(-0.27)"/><rect class="cls-1" x="304.47" y="305.84" width="22.05" height="17.94" transform="translate(-1.48 1.49) rotate(-0.27)"/><rect class="cls-1" x="303.97" y="198.75" width="22.05" height="19.44" transform="translate(-0.98 1.48) rotate(-0.27)"/><rect class="cls-1" x="304.07" y="220.17" width="22.05" height="19.44" transform="translate(-1.08 1.49) rotate(-0.27)"/><rect class="cls-1" x="280.34" y="284.54" width="22.05" height="19.44" transform="translate(-1.38 1.37) rotate(-0.27)"/><rect class="cls-1" x="280.44" y="305.95" width="22.05" height="17.94" transform="translate(-1.48 1.38) rotate(-0.27)"/><rect class="cls-1" x="279.84" y="178.94" width="22.05" height="17.94" transform="translate(-0.88 1.37) rotate(-0.27)"/><rect class="cls-1" x="304.17" y="241.58" width="22.05" height="19.44" transform="translate(-1.18 1.49) rotate(-0.27)"/><rect class="cls-1" x="279.94" y="198.86" width="22.05" height="19.44" transform="translate(-0.98 1.37) rotate(-0.27)"/><rect class="cls-1" x="280.04" y="220.28" width="22.05" height="19.44" transform="translate(-1.08 1.37) rotate(-0.27)"/><g class="cls-3"><polygon class="cls-4" points="317.54 176.83 254.67 232.26 254.41 177.13 317.54 176.83"/><polygon class="cls-4" points="345.57 176.7 254.78 256.76 254.72 243.34 330.21 176.77 345.57 176.7"/><polygon class="cls-4" points="352.31 189.46 352.34 196.18 254.9 282.09 254.86 275.37 352.31 189.46"/></g><g class="cls-3"><polygon class="cls-4" points="352.9 314.2 352.95 325.59 339.92 325.65 352.9 314.2"/><polygon class="cls-4" points="352.81 294.85 352.86 305.46 329.91 325.7 317.77 325.75 352.81 294.85"/><polygon class="cls-4" points="352.71 274.87 352.74 280.17 300.95 325.83 294.88 325.86 352.71 274.87"/></g><rect class="cls-1" x="137.56" y="178.95" width="97.85" height="148.92" transform="translate(-1.19 0.88) rotate(-0.27)"/><rect class="cls-2" x="137.56" y="178.95" width="97.85" height="148.92" transform="translate(-1.19 0.88) rotate(-0.27)"/><rect class="cls-1" x="211.11" y="264.94" width="22.05" height="19.44" transform="translate(-1.29 1.05) rotate(-0.27)"/><rect class="cls-1" x="211.21" y="286.36" width="22.05" height="19.44" transform="translate(-1.39 1.05) rotate(-0.27)"/><rect class="cls-1" x="187.08" y="265.05" width="22.05" height="19.44" transform="translate(-1.29 0.94) rotate(-0.27)"/><rect class="cls-1" x="210.8" y="200.68" width="22.05" height="19.44" transform="translate(-0.99 1.05) rotate(-0.27)"/><rect class="cls-1" x="187.18" y="286.47" width="22.05" height="19.44" transform="matrix(1, 0, 0, 1, -1.39, 0.94)"/><rect class="cls-1" x="211.01" y="243.52" width="22.05" height="19.44" transform="translate(-1.19 1.05) rotate(-0.27)"/><rect class="cls-1" x="210.9" y="222.1" width="22.05" height="19.44" transform="translate(-1.09 1.05) rotate(-0.27)"/><rect class="cls-1" x="139.54" y="243.86" width="21.42" height="19.44" transform="translate(-1.19 0.71) rotate(-0.27)"/><rect class="cls-1" x="139.64" y="265.27" width="21.42" height="19.44" transform="translate(-1.29 0.71) rotate(-0.27)"/><rect class="cls-1" x="139.34" y="201.02" width="21.42" height="19.44" transform="translate(-0.99 0.71) rotate(-0.27)"/><rect class="cls-1" x="139.74" y="286.69" width="21.42" height="19.44" transform="translate(-1.39 0.71) rotate(-0.27)"/><rect class="cls-1" x="139.44" y="222.44" width="21.42" height="19.44" transform="translate(-1.09 0.71) rotate(-0.27)"/><rect class="cls-1" x="210.71" y="180.76" width="22.05" height="17.94" transform="translate(-0.89 1.05) rotate(-0.27)"/><rect class="cls-1" x="211.3" y="307.77" width="22.05" height="17.94" transform="translate(-1.49 1.05) rotate(-0.27)"/><rect class="cls-1" x="139.84" y="308.11" width="21.42" height="17.94" transform="translate(-1.49 0.71) rotate(-0.27)"/><rect class="cls-1" x="139.24" y="181.1" width="21.42" height="17.94" transform="translate(-0.89 0.71) rotate(-0.27)"/><rect class="cls-1" x="162.94" y="243.74" width="22.05" height="19.44" transform="translate(-1.19 0.82) rotate(-0.27)"/><rect class="cls-1" x="163.04" y="265.16" width="22.05" height="19.44" transform="translate(-1.29 0.82) rotate(-0.27)"/><rect class="cls-1" x="186.68" y="180.87" width="22.05" height="17.94" transform="translate(-0.89 0.93) rotate(-0.27)"/><rect class="cls-1" x="187.27" y="307.89" width="22.05" height="17.94" transform="translate(-1.49 0.94) rotate(-0.27)"/><rect class="cls-1" x="186.77" y="200.79" width="22.05" height="19.44" transform="translate(-0.99 0.93) rotate(-0.27)"/><rect class="cls-1" x="186.87" y="222.21" width="22.05" height="19.44" transform="translate(-1.09 0.93) rotate(-0.27)"/><rect class="cls-1" x="163.15" y="286.58" width="22.05" height="19.44" transform="translate(-1.39 0.82) rotate(-0.27)"/><rect class="cls-1" x="163.24" y="308" width="22.05" height="17.94" transform="translate(-1.49 0.82) rotate(-0.27)"/><rect class="cls-1" x="162.65" y="180.99" width="22.05" height="17.94" transform="matrix(1, 0, 0, 1, -0.89, 0.82)"/><rect class="cls-1" x="186.97" y="243.63" width="22.05" height="19.44" transform="translate(-1.19 0.94) rotate(-0.27)"/><rect class="cls-1" x="162.74" y="200.91" width="22.05" height="19.44" transform="translate(-0.99 0.82) rotate(-0.27)"/><rect class="cls-1" x="162.84" y="222.33" width="22.05" height="19.44" transform="translate(-1.09 0.82) rotate(-0.27)"/><g class="cls-3"><polygon class="cls-4" points="200.34 178.88 137.47 234.31 137.21 179.17 200.34 178.88"/><polygon class="cls-4" points="228.38 178.75 137.59 258.8 137.52 245.38 213.02 178.82 228.38 178.75"/><polygon class="cls-4" points="235.12 191.51 235.15 198.23 137.7 284.14 137.67 277.42 235.12 191.51"/></g><g class="cls-3"><polygon class="cls-4" points="235.7 316.24 235.76 327.63 222.72 327.69 235.7 316.24"/><polygon class="cls-4" points="235.61 296.9 235.66 307.5 212.72 327.74 200.57 327.8 235.61 296.9"/><polygon class="cls-4" points="235.52 276.92 235.54 282.21 183.75 327.88 177.69 327.91 235.52 276.92"/></g><rect class="cls-5" x="21.07" y="180.37" width="96.19" height="150.16"/><rect class="cls-5" x="19.31" y="14.59" width="96.19" height="150.16"/><rect class="cls-5" x="136.51" y="12.77" width="96.19" height="150.16"/><rect class="cls-6" x="253.7" y="10.73" width="96.19" height="150.16"/><rect class="cls-5" x="137.33" y="178.16" width="96.19" height="150.16"/><rect class="cls-5" x="255.58" y="176.45" width="96.19" height="150.16"/><rect class="cls-7" x="0.5" y="0.5" width="371.49" height="341.62"/><rect class="cls-8" x="385.72" y="121.52" width="20.03" height="20.03" transform="matrix(0, 1, -1, 0, 527.27, -264.2)"/><text class="cls-9" transform="translate(410.29 133.88)">FUL<tspan class="cls-10" x="12.85" y="0">L</tspan><tspan x="15.95" y="0">Y FUN</tspan><tspan class="cls-11" x="36.31" y="0">C</tspan><tspan class="cls-12" x="41.17" y="0">TIONAL</tspan></text><rect class="cls-13" x="385.72" y="161.29" width="20.03" height="20.03" transform="matrix(0, 1, -1, 0, 567.04, -224.43)"/><text class="cls-9" transform="translate(410.29 173.66)">REQUIRES <tspan class="cls-14" x="34.72" y="0">M</tspan><tspan class="cls-12" x="41.07" y="0">AINTENANCE</tspan></text><rect class="cls-15" x="385.72" y="201.07" width="20.03" height="20.03" transform="matrix(0, 1, -1, 0, 606.82, -184.65)"/><text class="cls-9" transform="translate(410.29 213.43)">NON-OPE<tspan class="cls-16" x="32.2" y="0">R</tspan><tspan class="cls-17" x="36.54" y="0">A</tspan><tspan class="cls-12" x="40.82" y="0">TIONAL</tspan></text></g></g></svg>