<svg xmlns="http://www.w3.org/2000/svg" viewBox="0 0 303.95 143.61"><defs><style>.cls-1,.cls-11,.cls-18,.cls-4,.cls-5,.cls-9{fill:none;stroke-miterlimit:10;}.cls-1{stroke:aqua;}.cls-2{font-size:6px;font-family:LucidaSans-Typewriter, Lucida Sans Typewriter;font-style:italic;}.cls-10,.cls-2,.cls-3{fill:#fff;}.cls-3{font-size:5px;font-family:Lato-Regular, Lato Regular;}.cls-4{stroke:#8c88a2;stroke-width:0.5px;}.cls-18,.cls-5{stroke:#6c6788;}.cls-11,.cls-18,.cls-5{stroke-width:0.25px;}.cls-6{letter-spacing:0em;}.cls-7{letter-spacing:0em;}.cls-8{letter-spacing:0.02em;}.cls-9{stroke:#f7931e;}.cls-11{stroke:#0f605e;}.cls-12{letter-spacing:-0.03em;}.cls-13{letter-spacing:-0.01em;}.cls-14{letter-spacing:-0.08em;}.cls-15{letter-spacing:-0.05em;}.cls-16{letter-spacing:0em;}.cls-17{letter-spacing:-0.01em;}.cls-18{opacity:0.01;}</style></defs><title>Asset 2</title><g id="Layer_2" data-name="Layer 2"><g id="OBJECTS"><polyline class="cls-1" points="27.99 104.13 53.32 103.63 77.31 98.61 101.32 92.63 126.43 75.13 151.04 55.89 175.65 50.54 200.25 48.74 224.85 54.36 249.47 54.36 274.07 80.57"/><text class="cls-2" transform="translate(50.87 142.38) scale(1.02 1)">6</text><text class="cls-2" transform="translate(75.5 142.38)">7</text><text class="cls-2" transform="translate(100.12 142.38)">8</text><text class="cls-2" transform="translate(124.74 142.38)">9</text><text class="cls-2" transform="translate(147.56 142.38)">10</text><text class="cls-2" transform="translate(172.18 142.38)">11</text><text class="cls-2" transform="translate(196.8 142.38)">12</text><text class="cls-2" transform="translate(222.72 142.38)">1</text><text class="cls-3" transform="translate(16.22 117.66)">0.5</text><text class="cls-3" transform="translate(16.22 106.47)">1.0</text><text class="cls-3" transform="translate(16.22 95.28)">1.5</text><text class="cls-3" transform="translate(16.22 84.1)">2.0</text><text class="cls-3" transform="translate(16.22 72.91)">2.5</text><text class="cls-3" transform="translate(16.22 61.72)">3.5</text><text class="cls-3" transform="translate(16.22 50.54)">4.0</text><text class="cls-3" transform="translate(16.22 39.35)">4.5</text><text class="cls-3" transform="translate(16.22 28.17)">5.0</text><text class="cls-3" transform="translate(16.22 16.98)">5.5</text><polyline class="cls-4" points="27.99 10.83 27.99 129.72 286.82 129.72"/><line class="cls-5" x1="52.6" y1="133.49" x2="52.6" y2="32.13"/><line class="cls-5" x1="77.21" y1="32.13" x2="77.21" y2="133.49"/><line class="cls-5" x1="101.82" y1="32.13" x2="101.82" y2="133.49"/><line class="cls-5" x1="126.43" y1="32.13" x2="126.43" y2="133.49"/><line class="cls-5" x1="151.04" y1="32.13" x2="151.04" y2="133.49"/><line class="cls-5" x1="175.65" y1="32.13" x2="175.65" y2="133.49"/><line class="cls-5" x1="200.26" y1="32.13" x2="200.26" y2="133.49"/><line class="cls-5" x1="200.24" y1="32.47" x2="200.24" y2="133.84"/><line class="cls-5" x1="224.85" y1="32.47" x2="224.85" y2="133.84"/><line class="cls-5" x1="249.46" y1="32.47" x2="249.46" y2="133.84"/><line class="cls-5" x1="274.07" y1="32.47" x2="274.07" y2="133.84"/><text class="cls-2" transform="translate(248.15 142.38)">2</text><text class="cls-2" transform="translate(272.26 142.38)">3</text><text class="cls-3" transform="translate(0 7.44)">ENE<tspan class="cls-6" x="8.21" y="0">R</tspan><tspan class="cls-7" x="10.92" y="0">GY P</tspan><tspan class="cls-6" x="20.57" y="0">R</tspan><tspan x="23.27" y="0">ODUCED (</tspan><tspan class="cls-8" x="44.45" y="0">K</tspan><tspan x="47.24" y="0">WH)</tspan></text><polyline class="cls-9" points="224.32 42.63 200.26 38.78 175.63 60.2 150.79 69.75 126.55 82.81 101.93 92.63 77.32 92.63 52.72 105.08 27.99 115.81"/><path class="cls-10" d="M54.48,104.13a1.66,1.66,0,1,0-1.66,1.65A1.66,1.66,0,0,0,54.48,104.13Z"/><path class="cls-10" d="M79.16,92.87a1.66,1.66,0,1,0-1.66,1.66A1.67,1.67,0,0,0,79.16,92.87Z"/><path class="cls-10" d="M79.16,98.87a1.66,1.66,0,1,0-1.66,1.66A1.67,1.67,0,0,0,79.16,98.87Z"/><path class="cls-10" d="M103.16,92.87a1.66,1.66,0,1,0-1.66,1.66A1.67,1.67,0,0,0,103.16,92.87Z"/><path class="cls-10" d="M128.16,82.87a1.66,1.66,0,1,0-1.66,1.66A1.67,1.67,0,0,0,128.16,82.87Z"/><path class="cls-10" d="M128.16,74.87a1.66,1.66,0,1,0-1.66,1.66A1.67,1.67,0,0,0,128.16,74.87Z"/><path class="cls-10" d="M152.16,69.87a1.66,1.66,0,1,0-1.66,1.66A1.67,1.67,0,0,0,152.16,69.87Z"/><path class="cls-10" d="M152.48,56.13a1.66,1.66,0,1,0-1.66,1.65A1.66,1.66,0,0,0,152.48,56.13Z"/><path class="cls-10" d="M177.48,50.13a1.66,1.66,0,1,0-1.66,1.65A1.66,1.66,0,0,0,177.48,50.13Z"/><path class="cls-10" d="M201.48,49.13a1.66,1.66,0,1,0-1.66,1.65A1.66,1.66,0,0,0,201.48,49.13Z"/><path class="cls-10" d="M226.48,54.13a1.66,1.66,0,1,0-1.66,1.65A1.66,1.66,0,0,0,226.48,54.13Z"/><path class="cls-10" d="M251.48,54.13a1.66,1.66,0,1,0-1.66,1.65A1.66,1.66,0,0,0,251.48,54.13Z"/><path class="cls-10" d="M275.48,80.13a1.66,1.66,0,1,0-1.66,1.65A1.66,1.66,0,0,0,275.48,80.13Z"/><path class="cls-10" d="M177.16,59.87a1.66,1.66,0,1,0-1.66,1.66A1.67,1.67,0,0,0,177.16,59.87Z"/><path class="cls-10" d="M202.16,38.87a1.66,1.66,0,1,0-1.66,1.66A1.67,1.67,0,0,0,202.16,38.87Z"/><path class="cls-10" d="M226.16,42.87a1.66,1.66,0,1,0-1.66,1.66A1.67,1.67,0,0,0,226.16,42.87Z"/><text class="cls-3" transform="translate(290.02 130.7)">TIME</text><rect class="cls-11" x="222.82" y="0.13" width="57" height="20"/><line class="cls-9" x1="228.82" y1="13.63" x2="252.82" y2="13.63"/><path class="cls-10" d="M254.61,13.64A1.66,1.66,0,1,0,253,15.29,1.65,1.65,0,0,0,254.61,13.64Z"/><path class="cls-10" d="M230.29,13.64a1.66,1.66,0,1,0-1.65,1.65A1.65,1.65,0,0,0,230.29,13.64Z"/><line class="cls-1" x1="228.82" y1="7.07" x2="252.82" y2="7.07"/><path class="cls-10" d="M254.61,6.58A1.66,1.66,0,1,0,253,8.23,1.65,1.65,0,0,0,254.61,6.58Z"/><path class="cls-10" d="M230.29,6.81a1.66,1.66,0,1,0-1.65,1.66A1.65,1.65,0,0,0,230.29,6.81Z"/><text class="cls-3" transform="translate(258.48 15.1)"><tspan class="cls-12">T</tspan><tspan x="2.35" y="0">O</tspan><tspan class="cls-13" x="5.79" y="0">D</tspan><tspan class="cls-14" x="9.05" y="0">A</tspan><tspan x="11.72" y="0">Y</tspan></text><text class="cls-3" transform="translate(258.47 8.16)"><tspan class="cls-15">A</tspan><tspan x="2.79" y="0">VE</tspan><tspan class="cls-16" x="8.04" y="0">R</tspan><tspan class="cls-17" x="10.76" y="0">A</tspan><tspan x="13.75" y="0">GE</tspan></text><line class="cls-18" x1="303.95" y1="56.08" x2="303.95" y2="56.08"/></g></g></svg>