<svg xmlns="http://www.w3.org/2000/svg" viewBox="0 0 302.77 85.72"><defs><style>.cls-1{fill:#263238;}.cls-2,.cls-4,.cls-8{fill:#fff;}.cls-2{opacity:0.6;}.cls-3{opacity:0.1;}.cls-5,.cls-7{fill:#22ba22;}.cls-5,.cls-6{opacity:0.5;}.cls-11,.cls-6{fill:#f9ff00;}.cls-8{font-size:5.82px;font-family:Lato-Regular, Lato Regular;}.cls-9{letter-spacing:-0.08em;}.cls-10{letter-spacing:0.03em;}.cls-12{letter-spacing:-0.01em;}.cls-13{letter-spacing:0em;}.cls-14{fill:#ff1515;}.cls-15{letter-spacing:0em;}.cls-16{letter-spacing:-0.08em;}</style></defs><title>row solar penal</title><g id="Layer_2" data-name="Layer 2"><g id="Character"><rect class="cls-1" x="66.66" y="0.14" width="59.68" height="39.09" transform="translate(-0.09 0.45) rotate(-0.27)"/><rect class="cls-2" x="66.66" y="0.14" width="59.68" height="39.09" transform="translate(-0.09 0.45) rotate(-0.27)"/><rect class="cls-1" x="84.09" y="29.52" width="7.79" height="8.81" transform="matrix(1, 0, 0, 1, -0.16, 0.42)"/><rect class="cls-1" x="75.51" y="29.56" width="7.79" height="8.81" transform="translate(-0.16 0.38) rotate(-0.27)"/><rect class="cls-1" x="84.04" y="19.92" width="7.79" height="8.81" transform="translate(-0.11 0.42) rotate(-0.27)"/><rect class="cls-1" x="109.84" y="29.4" width="7.79" height="8.81" transform="translate(-0.16 0.54) rotate(-0.27)"/><rect class="cls-1" x="75.46" y="19.96" width="7.79" height="8.81" transform="translate(-0.11 0.37) rotate(-0.27)"/><rect class="cls-1" x="92.67" y="29.48" width="7.79" height="8.81" transform="matrix(1, 0, 0, 1, -0.16, 0.46)"/><rect class="cls-1" x="101.26" y="29.44" width="7.79" height="8.81" transform="translate(-0.16 0.5) rotate(-0.27)"/><rect class="cls-1" x="92.54" y="0.93" width="7.79" height="8.56" transform="translate(-0.02 0.45) rotate(-0.27)"/><rect class="cls-1" x="83.95" y="0.97" width="7.79" height="8.56" transform="matrix(1, 0, 0, 1, -0.02, 0.41)"/><rect class="cls-1" x="109.7" y="0.85" width="7.79" height="8.56" transform="translate(-0.02 0.54) rotate(-0.27)"/><rect class="cls-1" x="75.37" y="1.01" width="7.79" height="8.56" transform="translate(-0.02 0.37) rotate(-0.27)"/><rect class="cls-1" x="101.12" y="0.89" width="7.79" height="8.56" transform="translate(-0.02 0.49) rotate(-0.27)"/><rect class="cls-1" x="118.42" y="29.36" width="7.19" height="8.81" transform="matrix(1, 0, 0, 1, -0.16, 0.58)"/><rect class="cls-1" x="67.52" y="29.6" width="7.19" height="8.81" transform="translate(-0.16 0.34) rotate(-0.27)"/><rect class="cls-1" x="67.39" y="1.05" width="7.19" height="8.56" transform="translate(-0.02 0.34) rotate(-0.27)"/><rect class="cls-1" x="118.29" y="0.81" width="7.19" height="8.56" transform="translate(-0.02 0.57) rotate(-0.27)"/><rect class="cls-1" x="92.58" y="10.28" width="7.79" height="8.81" transform="translate(-0.07 0.46) rotate(-0.27)"/><rect class="cls-1" x="84" y="10.32" width="7.79" height="8.81" transform="translate(-0.07 0.41) rotate(-0.27)"/><rect class="cls-1" x="118.38" y="19.76" width="7.19" height="8.81" transform="translate(-0.11 0.58) rotate(-0.27)"/><rect class="cls-1" x="67.48" y="20" width="7.19" height="8.81" transform="matrix(1, 0, 0, 1, -0.11, 0.34)"/><rect class="cls-1" x="109.79" y="19.8" width="7.79" height="8.81" transform="translate(-0.11 0.54) rotate(-0.27)"/><rect class="cls-1" x="101.21" y="19.84" width="7.79" height="8.81" transform="matrix(1, 0, 0, 1, -0.11, 0.5)"/><rect class="cls-1" x="75.42" y="10.36" width="7.79" height="8.81" transform="matrix(1, 0, 0, 1, -0.07, 0.37)"/><rect class="cls-1" x="67.43" y="10.4" width="7.19" height="8.81" transform="translate(-0.07 0.33) rotate(-0.27)"/><rect class="cls-1" x="118.33" y="10.16" width="7.19" height="8.81" transform="translate(-0.07 0.58) rotate(-0.27)"/><rect class="cls-1" x="92.63" y="19.88" width="7.79" height="8.81" transform="translate(-0.11 0.46) rotate(-0.27)"/><rect class="cls-1" x="109.75" y="10.2" width="7.79" height="8.81" transform="matrix(1, 0, 0, 1, -0.07, 0.54)"/><rect class="cls-1" x="101.17" y="10.24" width="7.79" height="8.81" transform="matrix(1, 0, 0, 1, -0.07, 0.5)"/><g class="cls-3"><polygon class="cls-4" points="126.37 25.22 104.15 0.11 126.25 0 126.37 25.22"/><polygon class="cls-4" points="126.42 36.42 94.34 0.15 99.72 0.13 126.39 30.29 126.42 36.42"/><polygon class="cls-4" points="121.31 39.12 118.61 39.13 84.19 0.2 86.88 0.18 121.31 39.12"/></g><g class="cls-3"><polygon class="cls-4" points="71.32 39.35 66.75 39.37 66.73 34.16 71.32 39.35"/><polygon class="cls-4" points="79.07 39.31 74.82 39.33 66.71 30.17 66.69 25.32 79.07 39.31"/><polygon class="cls-4" points="87.08 39.28 84.96 39.29 66.66 18.6 66.64 16.17 87.08 39.28"/></g><rect class="cls-1" x="133.34" y="0.14" width="59.68" height="39.09" transform="translate(-0.09 0.77) rotate(-0.27)"/><rect class="cls-2" x="133.34" y="0.14" width="59.68" height="39.09" transform="translate(-0.09 0.77) rotate(-0.27)"/><rect class="cls-1" x="150.77" y="29.52" width="7.79" height="8.81" transform="matrix(1, 0, 0, 1, -0.16, 0.73)"/><rect class="cls-1" x="142.19" y="29.56" width="7.79" height="8.81" transform="translate(-0.16 0.69) rotate(-0.27)"/><rect class="cls-1" x="150.73" y="19.92" width="7.79" height="8.81" transform="translate(-0.11 0.73) rotate(-0.27)"/><rect class="cls-1" x="176.52" y="29.4" width="7.79" height="8.81" transform="matrix(1, 0, 0, 1, -0.16, 0.85)"/><rect class="cls-1" x="142.14" y="19.96" width="7.79" height="8.81" transform="translate(-0.11 0.69) rotate(-0.27)"/><rect class="cls-1" x="159.36" y="29.48" width="7.79" height="8.81" transform="translate(-0.16 0.77) rotate(-0.27)"/><rect class="cls-1" x="167.94" y="29.44" width="7.79" height="8.81" transform="translate(-0.16 0.81) rotate(-0.27)"/><rect class="cls-1" x="159.22" y="0.93" width="7.79" height="8.56" transform="translate(-0.02 0.77) rotate(-0.27)"/><rect class="cls-1" x="150.64" y="0.97" width="7.79" height="8.56" transform="matrix(1, 0, 0, 1, -0.02, 0.72)"/><rect class="cls-1" x="176.39" y="0.85" width="7.79" height="8.56" transform="translate(-0.02 0.85) rotate(-0.27)"/><rect class="cls-1" x="142.05" y="1.01" width="7.79" height="8.56" transform="matrix(1, 0, 0, 1, -0.02, 0.68)"/><rect class="cls-1" x="167.8" y="0.89" width="7.79" height="8.56" transform="translate(-0.02 0.81) rotate(-0.27)"/><rect class="cls-1" x="185.11" y="29.36" width="7.19" height="8.81" transform="matrix(1, 0, 0, 1, -0.16, 0.89)"/><rect class="cls-1" x="134.21" y="29.6" width="7.19" height="8.81" transform="translate(-0.16 0.65) rotate(-0.27)"/><rect class="cls-1" x="134.07" y="1.05" width="7.19" height="8.56" transform="translate(-0.02 0.65) rotate(-0.27)"/><rect class="cls-1" x="184.97" y="0.81" width="7.19" height="8.56" transform="translate(-0.02 0.88) rotate(-0.27)"/><rect class="cls-1" x="159.27" y="10.28" width="7.79" height="8.81" transform="translate(-0.07 0.77) rotate(-0.27)"/><rect class="cls-1" x="150.68" y="10.32" width="7.79" height="8.81" transform="translate(-0.07 0.73) rotate(-0.27)"/><rect class="cls-1" x="185.06" y="19.76" width="7.19" height="8.81" transform="matrix(1, 0, 0, 1, -0.11, 0.89)"/><rect class="cls-1" x="134.16" y="20" width="7.19" height="8.81" transform="translate(-0.11 0.65) rotate(-0.27)"/><rect class="cls-1" x="176.48" y="19.8" width="7.79" height="8.81" transform="translate(-0.11 0.85) rotate(-0.27)"/><rect class="cls-1" x="167.89" y="19.84" width="7.79" height="8.81" transform="translate(-0.11 0.81) rotate(-0.27)"/><rect class="cls-1" x="142.1" y="10.36" width="7.79" height="8.81" transform="translate(-0.07 0.69) rotate(-0.27)"/><rect class="cls-1" x="134.12" y="10.4" width="7.19" height="8.81" transform="translate(-0.07 0.65) rotate(-0.27)"/><rect class="cls-1" x="185.02" y="10.16" width="7.19" height="8.81" transform="translate(-0.07 0.89) rotate(-0.27)"/><rect class="cls-1" x="159.31" y="19.88" width="7.79" height="8.81" transform="translate(-0.11 0.77) rotate(-0.27)"/><rect class="cls-1" x="176.43" y="10.2" width="7.79" height="8.81" transform="matrix(1, 0, 0, 1, -0.07, 0.85)"/><rect class="cls-1" x="167.85" y="10.24" width="7.79" height="8.81" transform="translate(-0.07 0.81) rotate(-0.27)"/><g class="cls-3"><polygon class="cls-4" points="193.05 25.22 170.84 0.11 192.93 0 193.05 25.22"/><polygon class="cls-4" points="193.1 36.42 161.02 0.15 166.4 0.13 193.07 30.29 193.1 36.42"/><polygon class="cls-4" points="187.99 39.12 185.3 39.13 150.87 0.2 153.56 0.18 187.99 39.12"/></g><g class="cls-3"><polygon class="cls-4" points="138 39.35 133.44 39.37 133.41 34.16 138 39.35"/><polygon class="cls-4" points="145.75 39.31 141.5 39.33 133.39 30.17 133.37 25.32 145.75 39.31"/><polygon class="cls-4" points="153.76 39.28 151.64 39.29 133.34 18.6 133.33 16.17 153.76 39.28"/></g><rect class="cls-1" x="67.48" y="46.49" width="59.68" height="39.09" transform="translate(-0.31 0.46) rotate(-0.27)"/><rect class="cls-2" x="67.48" y="46.49" width="59.68" height="39.09" transform="translate(-0.31 0.46) rotate(-0.27)"/><rect class="cls-1" x="84.91" y="75.87" width="7.79" height="8.81" transform="matrix(1, 0, 0, 1, -0.38, 0.42)"/><rect class="cls-1" x="76.33" y="75.91" width="7.79" height="8.81" transform="translate(-0.38 0.38) rotate(-0.27)"/><rect class="cls-1" x="84.86" y="66.27" width="7.79" height="8.81" transform="translate(-0.33 0.42) rotate(-0.27)"/><rect class="cls-1" x="110.66" y="75.75" width="7.79" height="8.81" transform="matrix(1, 0, 0, 1, -0.38, 0.54)"/><rect class="cls-1" x="76.28" y="66.31" width="7.79" height="8.81" transform="translate(-0.33 0.38) rotate(-0.27)"/><rect class="cls-1" x="93.49" y="75.83" width="7.79" height="8.81" transform="translate(-0.38 0.46) rotate(-0.27)"/><rect class="cls-1" x="102.08" y="75.79" width="7.79" height="8.81" transform="translate(-0.38 0.5) rotate(-0.27)"/><rect class="cls-1" x="93.36" y="47.28" width="7.79" height="8.56" transform="translate(-0.24 0.46) rotate(-0.27)"/><rect class="cls-1" x="84.77" y="47.32" width="7.79" height="8.56" transform="translate(-0.24 0.42) rotate(-0.27)"/><rect class="cls-1" x="110.52" y="47.2" width="7.79" height="8.56" transform="translate(-0.24 0.54) rotate(-0.27)"/><rect class="cls-1" x="76.19" y="47.36" width="7.79" height="8.56" transform="matrix(1, 0, 0, 1, -0.24, 0.38)"/><rect class="cls-1" x="101.94" y="47.24" width="7.79" height="8.56" transform="translate(-0.24 0.5) rotate(-0.27)"/><rect class="cls-1" x="119.24" y="75.71" width="7.19" height="8.81" transform="matrix(1, 0, 0, 1, -0.38, 0.58)"/><rect class="cls-1" x="68.34" y="75.95" width="7.19" height="8.81" transform="matrix(1, 0, 0, 1, -0.38, 0.34)"/><rect class="cls-1" x="68.21" y="47.4" width="7.19" height="8.56" transform="translate(-0.24 0.34) rotate(-0.27)"/><rect class="cls-1" x="119.11" y="47.16" width="7.19" height="8.56" transform="translate(-0.24 0.58) rotate(-0.27)"/><rect class="cls-1" x="93.4" y="56.63" width="7.79" height="8.81" transform="translate(-0.29 0.46) rotate(-0.27)"/><rect class="cls-1" x="84.82" y="56.67" width="7.79" height="8.81" transform="translate(-0.29 0.42) rotate(-0.27)"/><rect class="cls-1" x="119.2" y="66.11" width="7.19" height="8.81" transform="translate(-0.33 0.58) rotate(-0.27)"/><rect class="cls-1" x="68.3" y="66.35" width="7.19" height="8.81" transform="matrix(1, 0, 0, 1, -0.33, 0.34)"/><rect class="cls-1" x="110.61" y="66.15" width="7.79" height="8.81" transform="translate(-0.33 0.54) rotate(-0.27)"/><rect class="cls-1" x="102.03" y="66.19" width="7.79" height="8.81" transform="translate(-0.33 0.5) rotate(-0.27)"/><rect class="cls-1" x="76.24" y="56.71" width="7.79" height="8.81" transform="translate(-0.29 0.38) rotate(-0.27)"/><rect class="cls-1" x="68.25" y="56.75" width="7.19" height="8.81" transform="translate(-0.29 0.34) rotate(-0.27)"/><rect class="cls-1" x="119.15" y="56.51" width="7.19" height="8.81" transform="translate(-0.29 0.58) rotate(-0.27)"/><rect class="cls-1" x="93.45" y="66.23" width="7.79" height="8.81" transform="translate(-0.33 0.46) rotate(-0.27)"/><rect class="cls-1" x="110.57" y="56.55" width="7.79" height="8.81" transform="translate(-0.29 0.54) rotate(-0.27)"/><rect class="cls-1" x="101.99" y="56.59" width="7.79" height="8.81" transform="matrix(1, 0, 0, 1, -0.29, 0.5)"/><g class="cls-3"><polygon class="cls-4" points="127.19 71.57 104.97 46.45 127.07 46.35 127.19 71.57"/><polygon class="cls-4" points="127.24 82.77 95.16 46.5 100.54 46.47 127.21 76.64 127.24 82.77"/><polygon class="cls-4" points="122.13 85.46 119.43 85.48 85 46.55 87.7 46.53 122.13 85.46"/></g><g class="cls-3"><polygon class="cls-4" points="72.14 85.7 67.57 85.72 67.55 80.51 72.14 85.7"/><polygon class="cls-4" points="79.89 85.66 75.64 85.68 67.53 76.52 67.51 71.66 79.89 85.66"/><polygon class="cls-4" points="87.9 85.62 85.78 85.63 67.48 64.94 67.47 62.52 87.9 85.62"/></g><rect class="cls-1" x="0.25" y="0.14" width="59.68" height="39.09" transform="translate(-0.09 0.14) rotate(-0.27)"/><rect class="cls-2" x="0.25" y="0.14" width="59.68" height="39.09" transform="translate(-0.09 0.14) rotate(-0.27)"/><rect class="cls-1" x="17.68" y="29.52" width="7.79" height="8.81" transform="matrix(1, 0, 0, 1, -0.16, 0.1)"/><rect class="cls-1" x="9.09" y="29.56" width="7.79" height="8.81" transform="matrix(1, 0, 0, 1, -0.16, 0.06)"/><rect class="cls-1" x="17.63" y="19.92" width="7.79" height="8.81" transform="translate(-0.11 0.1) rotate(-0.27)"/><rect class="cls-1" x="43.43" y="29.4" width="7.79" height="8.81" transform="translate(-0.16 0.22) rotate(-0.27)"/><rect class="cls-1" x="9.05" y="19.96" width="7.79" height="8.81" transform="translate(-0.11 0.06) rotate(-0.27)"/><rect class="cls-1" x="26.26" y="29.48" width="7.79" height="8.81" transform="matrix(1, 0, 0, 1, -0.16, 0.14)"/><rect class="cls-1" x="34.84" y="29.44" width="7.79" height="8.81" transform="translate(-0.16 0.18) rotate(-0.27)"/><rect class="cls-1" x="26.12" y="0.93" width="7.79" height="8.56" transform="translate(-0.02 0.14) rotate(-0.27)"/><rect class="cls-1" x="17.54" y="0.97" width="7.79" height="8.56" transform="translate(-0.02 0.1) rotate(-0.27)"/><rect class="cls-1" x="43.29" y="0.85" width="7.79" height="8.56" transform="translate(-0.02 0.22) rotate(-0.27)"/><rect class="cls-1" x="8.96" y="1.01" width="7.79" height="8.56" transform="matrix(1, 0, 0, 1, -0.02, 0.06)"/><rect class="cls-1" x="34.71" y="0.89" width="7.79" height="8.56" transform="translate(-0.02 0.18) rotate(-0.27)"/><rect class="cls-1" x="52.01" y="29.36" width="7.19" height="8.81" transform="translate(-0.16 0.26) rotate(-0.27)"/><rect class="cls-1" x="1.11" y="29.6" width="7.19" height="8.81" transform="matrix(1, 0, 0, 1, -0.16, 0.02)"/><rect class="cls-1" x="0.98" y="1.05" width="7.19" height="8.56" transform="translate(-0.03 0.02) rotate(-0.27)"/><rect class="cls-1" x="51.87" y="0.81" width="7.19" height="8.56" transform="translate(-0.02 0.26) rotate(-0.27)"/><rect class="cls-1" x="26.17" y="10.28" width="7.79" height="8.81" transform="translate(-0.07 0.14) rotate(-0.27)"/><rect class="cls-1" x="17.59" y="10.32" width="7.79" height="8.81" transform="translate(-0.07 0.1) rotate(-0.27)"/><rect class="cls-1" x="51.96" y="19.76" width="7.19" height="8.81" transform="translate(-0.11 0.26) rotate(-0.27)"/><rect class="cls-1" x="1.07" y="20" width="7.19" height="8.81" transform="translate(-0.12 0.02) rotate(-0.27)"/><rect class="cls-1" x="43.38" y="19.8" width="7.79" height="8.81" transform="translate(-0.11 0.22) rotate(-0.27)"/><rect class="cls-1" x="34.8" y="19.84" width="7.79" height="8.81" transform="translate(-0.11 0.18) rotate(-0.27)"/><rect class="cls-1" x="9" y="10.36" width="7.79" height="8.81" transform="translate(-0.07 0.06) rotate(-0.27)"/><rect class="cls-1" x="1.02" y="10.4" width="7.19" height="8.81" transform="translate(-0.07 0.02) rotate(-0.27)"/><rect class="cls-1" x="51.92" y="10.16" width="7.19" height="8.81" transform="translate(-0.07 0.26) rotate(-0.27)"/><rect class="cls-1" x="26.21" y="19.88" width="7.79" height="8.81" transform="translate(-0.11 0.14) rotate(-0.27)"/><rect class="cls-1" x="43.34" y="10.2" width="7.79" height="8.81" transform="translate(-0.07 0.22) rotate(-0.27)"/><rect class="cls-1" x="34.75" y="10.24" width="7.79" height="8.81" transform="matrix(1, 0, 0, 1, -0.07, 0.18)"/><g class="cls-3"><polygon class="cls-4" points="59.95 25.22 37.74 0.11 59.84 0 59.95 25.22"/><polygon class="cls-4" points="60.01 36.42 27.92 0.15 33.3 0.13 59.98 30.29 60.01 36.42"/><polygon class="cls-4" points="54.89 39.12 52.2 39.13 17.77 0.2 20.46 0.18 54.89 39.12"/></g><g class="cls-3"><polygon class="cls-4" points="4.91 39.35 0.34 39.37 0.32 34.16 4.91 39.35"/><polygon class="cls-4" points="12.66 39.31 8.41 39.33 0.3 30.17 0.28 25.32 12.66 39.31"/><polygon class="cls-4" points="20.66 39.28 18.54 39.29 0.24 18.6 0.23 16.17 20.66 39.28"/></g><rect class="cls-1" x="133.98" y="46.34" width="59.68" height="39.09" transform="translate(-0.31 0.77) rotate(-0.27)"/><rect class="cls-2" x="133.98" y="46.34" width="59.68" height="39.09" transform="translate(-0.31 0.77) rotate(-0.27)"/><rect class="cls-1" x="151.41" y="75.72" width="7.79" height="8.81" transform="translate(-0.38 0.73) rotate(-0.27)"/><rect class="cls-1" x="142.83" y="75.76" width="7.79" height="8.81" transform="matrix(1, 0, 0, 1, -0.38, 0.69)"/><rect class="cls-1" x="151.37" y="66.12" width="7.79" height="8.81" transform="translate(-0.33 0.73) rotate(-0.27)"/><rect class="cls-1" x="177.16" y="75.6" width="7.79" height="8.81" transform="matrix(1, 0, 0, 1, -0.38, 0.86)"/><rect class="cls-1" x="142.78" y="66.16" width="7.79" height="8.81" transform="translate(-0.33 0.69) rotate(-0.27)"/><rect class="cls-1" x="160" y="75.68" width="7.79" height="8.81" transform="matrix(1, 0, 0, 1, -0.38, 0.77)"/><rect class="cls-1" x="168.58" y="75.64" width="7.79" height="8.81" transform="translate(-0.38 0.82) rotate(-0.27)"/><rect class="cls-1" x="159.86" y="47.13" width="7.79" height="8.56" transform="translate(-0.24 0.77) rotate(-0.27)"/><rect class="cls-1" x="151.28" y="47.17" width="7.79" height="8.56" transform="translate(-0.24 0.73) rotate(-0.27)"/><rect class="cls-1" x="177.03" y="47.05" width="7.79" height="8.56" transform="translate(-0.24 0.85) rotate(-0.27)"/><rect class="cls-1" x="142.69" y="47.21" width="7.79" height="8.56" transform="matrix(1, 0, 0, 1, -0.24, 0.69)"/><rect class="cls-1" x="168.44" y="47.09" width="7.79" height="8.56" transform="translate(-0.24 0.81) rotate(-0.27)"/><rect class="cls-1" x="185.75" y="75.56" width="7.19" height="8.81" transform="translate(-0.38 0.89) rotate(-0.27)"/><rect class="cls-1" x="134.85" y="75.8" width="7.19" height="8.81" transform="matrix(1, 0, 0, 1, -0.38, 0.65)"/><rect class="cls-1" x="134.71" y="47.25" width="7.19" height="8.56" transform="translate(-0.24 0.65) rotate(-0.27)"/><rect class="cls-1" x="185.61" y="47.01" width="7.19" height="8.56" transform="translate(-0.24 0.89) rotate(-0.27)"/><rect class="cls-1" x="159.91" y="56.48" width="7.79" height="8.81" transform="translate(-0.29 0.77) rotate(-0.27)"/><rect class="cls-1" x="151.32" y="56.52" width="7.79" height="8.81" transform="translate(-0.29 0.73) rotate(-0.27)"/><rect class="cls-1" x="185.7" y="65.96" width="7.19" height="8.81" transform="translate(-0.33 0.89) rotate(-0.27)"/><rect class="cls-1" x="134.8" y="66.2" width="7.19" height="8.81" transform="translate(-0.33 0.65) rotate(-0.27)"/><rect class="cls-1" x="177.12" y="66" width="7.79" height="8.81" transform="translate(-0.33 0.86) rotate(-0.27)"/><rect class="cls-1" x="168.53" y="66.04" width="7.79" height="8.81" transform="translate(-0.33 0.81) rotate(-0.27)"/><rect class="cls-1" x="142.74" y="56.56" width="7.79" height="8.81" transform="translate(-0.29 0.69) rotate(-0.27)"/><rect class="cls-1" x="134.76" y="56.6" width="7.19" height="8.81" transform="translate(-0.28 0.65) rotate(-0.27)"/><rect class="cls-1" x="185.66" y="56.36" width="7.19" height="8.81" transform="translate(-0.28 0.89) rotate(-0.27)"/><rect class="cls-1" x="159.95" y="66.08" width="7.79" height="8.81" transform="translate(-0.33 0.77) rotate(-0.27)"/><rect class="cls-1" x="177.07" y="56.4" width="7.79" height="8.81" transform="matrix(1, 0, 0, 1, -0.28, 0.85)"/><rect class="cls-1" x="168.49" y="56.44" width="7.79" height="8.81" transform="translate(-0.29 0.81) rotate(-0.27)"/><g class="cls-3"><polygon class="cls-4" points="193.69 71.42 171.48 46.3 193.57 46.2 193.69 71.42"/><polygon class="cls-4" points="193.74 82.62 161.66 46.35 167.04 46.33 193.71 76.49 193.74 82.62"/><polygon class="cls-4" points="188.63 85.31 185.94 85.33 151.51 46.4 154.2 46.38 188.63 85.31"/></g><g class="cls-3"><polygon class="cls-4" points="138.64 85.55 134.08 85.57 134.05 80.36 138.64 85.55"/><polygon class="cls-4" points="146.39 85.51 142.14 85.53 134.03 76.37 134.01 71.52 146.39 85.51"/><polygon class="cls-4" points="154.4 85.47 152.28 85.48 133.98 64.79 133.97 62.37 154.4 85.47"/></g><rect class="cls-1" x="1.07" y="46.49" width="59.68" height="39.09" transform="translate(-0.31 0.15) rotate(-0.27)"/><rect class="cls-2" x="1.07" y="46.49" width="59.68" height="39.09" transform="translate(-0.31 0.15) rotate(-0.27)"/><rect class="cls-1" x="18.5" y="75.87" width="7.79" height="8.81" transform="translate(-0.38 0.11) rotate(-0.27)"/><rect class="cls-1" x="9.91" y="75.91" width="7.79" height="8.81" transform="matrix(1, 0, 0, 1, -0.38, 0.07)"/><rect class="cls-1" x="18.45" y="66.27" width="7.79" height="8.81" transform="translate(-0.33 0.11) rotate(-0.27)"/><rect class="cls-1" x="44.25" y="75.75" width="7.79" height="8.81" transform="matrix(1, 0, 0, 1, -0.38, 0.23)"/><rect class="cls-1" x="9.87" y="66.31" width="7.79" height="8.81" transform="matrix(1, 0, 0, 1, -0.33, 0.07)"/><rect class="cls-1" x="27.08" y="75.83" width="7.79" height="8.81" transform="translate(-0.38 0.15) rotate(-0.27)"/><rect class="cls-1" x="35.66" y="75.79" width="7.79" height="8.81" transform="translate(-0.38 0.19) rotate(-0.27)"/><rect class="cls-1" x="26.94" y="47.28" width="7.79" height="8.56" transform="translate(-0.24 0.15) rotate(-0.27)"/><rect class="cls-1" x="18.36" y="47.32" width="7.79" height="8.56" transform="matrix(1, 0, 0, 1, -0.24, 0.1)"/><rect class="cls-1" x="44.11" y="47.2" width="7.79" height="8.56" transform="translate(-0.24 0.23) rotate(-0.27)"/><rect class="cls-1" x="9.78" y="47.36" width="7.79" height="8.56" transform="translate(-0.24 0.06) rotate(-0.27)"/><rect class="cls-1" x="35.53" y="47.24" width="7.79" height="8.56" transform="translate(-0.24 0.19) rotate(-0.27)"/><rect class="cls-1" x="52.83" y="75.71" width="7.19" height="8.81" transform="translate(-0.38 0.27) rotate(-0.27)"/><rect class="cls-1" x="1.93" y="75.95" width="7.19" height="8.81" transform="translate(-0.38 0.03) rotate(-0.27)"/><rect class="cls-1" x="1.8" y="47.4" width="7.19" height="8.56" transform="translate(-0.24 0.03) rotate(-0.27)"/><rect class="cls-1" x="52.69" y="47.16" width="7.19" height="8.56" transform="translate(-0.24 0.26) rotate(-0.27)"/><rect class="cls-1" x="26.99" y="56.63" width="7.79" height="8.81" transform="translate(-0.29 0.15) rotate(-0.27)"/><rect class="cls-1" x="18.41" y="56.67" width="7.79" height="8.81" transform="matrix(1, 0, 0, 1, -0.29, 0.11)"/><rect class="cls-1" x="52.78" y="66.11" width="7.19" height="8.81" transform="matrix(1, 0, 0, 1, -0.33, 0.27)"/><rect class="cls-1" x="1.89" y="66.35" width="7.19" height="8.81" transform="translate(-0.33 0.03) rotate(-0.27)"/><rect class="cls-1" x="44.2" y="66.15" width="7.79" height="8.81" transform="translate(-0.33 0.23) rotate(-0.27)"/><rect class="cls-1" x="35.62" y="66.19" width="7.79" height="8.81" transform="translate(-0.33 0.19) rotate(-0.27)"/><rect class="cls-1" x="9.82" y="56.71" width="7.79" height="8.81" transform="matrix(1, 0, 0, 1, -0.29, 0.07)"/><rect class="cls-1" x="1.84" y="56.75" width="7.19" height="8.81" transform="translate(-0.29 0.03) rotate(-0.27)"/><rect class="cls-1" x="52.74" y="56.51" width="7.19" height="8.81" transform="translate(-0.29 0.27) rotate(-0.27)"/><rect class="cls-1" x="27.03" y="66.23" width="7.79" height="8.81" transform="translate(-0.33 0.15) rotate(-0.27)"/><rect class="cls-1" x="44.16" y="56.55" width="7.79" height="8.81" transform="translate(-0.29 0.23) rotate(-0.27)"/><rect class="cls-1" x="35.57" y="56.59" width="7.79" height="8.81" transform="translate(-0.29 0.19) rotate(-0.27)"/><g class="cls-3"><polygon class="cls-4" points="60.77 71.57 38.56 46.45 60.66 46.35 60.77 71.57"/><polygon class="cls-4" points="60.83 82.77 28.74 46.5 34.12 46.47 60.8 76.64 60.83 82.77"/><polygon class="cls-4" points="55.71 85.46 53.02 85.48 18.59 46.55 21.29 46.53 55.71 85.46"/></g><g class="cls-3"><polygon class="cls-4" points="5.73 85.7 1.16 85.72 1.14 80.51 5.73 85.7"/><polygon class="cls-4" points="13.48 85.66 9.23 85.68 1.12 76.52 1.09 71.66 13.48 85.66"/><polygon class="cls-4" points="21.48 85.62 19.36 85.63 1.06 64.94 1.05 62.52 21.48 85.62"/></g><rect class="cls-5" x="10.87" y="-10.4" width="38.43" height="60.17" transform="translate(49.77 -10.4) rotate(90)"/><rect class="cls-5" x="77.31" y="-10.4" width="38.43" height="60.17" transform="translate(116.21 -76.84) rotate(90)"/><rect class="cls-5" x="78.04" y="35.95" width="38.43" height="60.17" transform="translate(163.29 -31.22) rotate(90)"/><rect class="cls-6" x="143.9" y="-10.4" width="38.43" height="60.17" transform="translate(182.8 -143.43) rotate(90)"/><rect class="cls-5" x="11.76" y="35.95" width="38.43" height="60.17" transform="translate(97.01 35.06) rotate(90)"/><rect class="cls-5" x="144.54" y="35.8" width="38.43" height="60.17" transform="translate(229.64 -97.87) rotate(90)"/><rect class="cls-7" x="223" y="7.04" width="14.57" height="14.57" transform="matrix(0, 1, -1, 0, 244.62, -215.96)"/><text class="cls-8" transform="translate(240.88 16.03)">FUL<tspan class="cls-9" x="9.35" y="0">L</tspan><tspan x="11.61" y="0">Y FUN</tspan><tspan class="cls-10" x="26.42" y="0">C</tspan><tspan x="29.96" y="0">TIONAL</tspan></text><rect class="cls-11" x="223" y="35.98" width="14.57" height="14.57" transform="matrix(0, 1, -1, 0, 273.56, -187.02)"/><text class="cls-8" transform="translate(240.88 44.98)">REQUIRES <tspan class="cls-12" x="25.26" y="0">M</tspan><tspan class="cls-13" x="29.89" y="0">AINTENANCE</tspan></text><rect class="cls-14" x="223" y="64.92" width="14.57" height="14.57" transform="matrix(0, 1, -1, 0, 302.5, -158.08)"/><text class="cls-8" transform="translate(240.88 73.92)">NON-OPE<tspan class="cls-15" x="23.43" y="0">R</tspan><tspan class="cls-16" x="26.59" y="0">A</tspan><tspan x="29.71" y="0">TIONAL</tspan></text></g></g></svg>