<svg xmlns="http://www.w3.org/2000/svg" viewBox="0 0 732.8 124.99"><defs><style>.cls-1{isolation:isolate;}.cls-2{fill:#336680;opacity:0.44;mix-blend-mode:multiply;}.cls-3,.cls-8,.cls-9{fill:#fff;}.cls-4{fill:#39b7b1;}.cls-5{fill:#fce253;}.cls-6,.cls-7{fill:none;}.cls-6,.cls-8{stroke:#fce253;}.cls-6,.cls-7,.cls-8{stroke-linecap:round;stroke-linejoin:round;}.cls-7{stroke:#fff;}.cls-9{font-size:12.89px;font-family:Rockwell-Bold, Rockwell;font-weight:700;}.cls-10{letter-spacing:-0.03em;}.cls-11{letter-spacing:-0.03em;}.cls-12{letter-spacing:0em;}</style></defs><title>Weather forecast</title><g class="cls-1"><g id="Layer_2" data-name="Layer 2"><g id="OBJECTS"><rect class="cls-2" x="323.22" width="114" height="124.99"/><path class="cls-2" d="M0,0V108.58c0,8.76,8.35,15.86,18.65,15.86h695.5c10.3,0,18.65-7.1,18.65-15.86V0Z"/><rect class="cls-2" width="732.8" height="20.09"/><path class="cls-3" d="M167.82,76a7.23,7.23,0,0,0-1.33.13,7.8,7.8,0,0,0-7.39-5.33,7.63,7.63,0,0,0-2.71.5A9.47,9.47,0,0,0,138.7,76c0,.06,0,.12,0,.19a7.79,7.79,0,0,0,1.67,15.39h.15a7.79,7.79,0,0,0,15.12.65,7.72,7.72,0,0,0,5.13,2A7.81,7.81,0,0,0,167.65,90h.17a7,7,0,0,0,0-14.07Z"/><path class="cls-4" d="M285.71,73.59a6.27,6.27,0,0,0-1.12-.2,6.66,6.66,0,0,0-4.81-6.13,6.55,6.55,0,0,0-2.35-.24,8.1,8.1,0,0,0-15.66-.33l0,.15a6.66,6.66,0,0,0-2.28,13l.13,0a6.66,6.66,0,0,0,12.27,4.13,6.66,6.66,0,0,0,10.38,1.06l.13,0a6,6,0,0,0,3.34-11.57Z"/><path class="cls-3" d="M278,81.6a7.4,7.4,0,0,0-1.33.13,7.79,7.79,0,0,0-7.38-5.33,7.91,7.91,0,0,0-2.72.5,9.46,9.46,0,0,0-17.68,4.7c0,.06,0,.12,0,.19a7.79,7.79,0,0,0,1.67,15.39h.15a7.79,7.79,0,0,0,15.12.66,7.77,7.77,0,0,0,12-2.17H278a7,7,0,1,0,0-14.07Z"/><circle class="cls-5" cx="587.96" cy="72.84" r="12.01"/><line class="cls-6" x1="587.96" y1="55.6" x2="587.96" y2="58.79"/><line class="cls-6" x1="584.96" y1="55.86" x2="585.52" y2="59.01"/><line class="cls-6" x1="582.06" y1="56.64" x2="583.15" y2="59.64"/><line class="cls-6" x1="579.34" y1="57.91" x2="580.93" y2="60.67"/><line class="cls-6" x1="576.88" y1="59.64" x2="578.93" y2="62.08"/><line class="cls-6" x1="574.75" y1="61.76" x2="577.2" y2="63.81"/><line class="cls-6" x1="573.03" y1="64.22" x2="575.79" y2="65.82"/><line class="cls-6" x1="571.76" y1="66.94" x2="574.76" y2="68.03"/><line class="cls-6" x1="570.98" y1="69.84" x2="574.13" y2="70.4"/><line class="cls-6" x1="570.72" y1="72.84" x2="573.91" y2="72.84"/><line class="cls-6" x1="570.98" y1="75.83" x2="574.13" y2="75.28"/><line class="cls-6" x1="571.76" y1="78.73" x2="574.76" y2="77.64"/><line class="cls-6" x1="573.03" y1="81.45" x2="575.79" y2="79.86"/><line class="cls-6" x1="574.75" y1="83.92" x2="577.2" y2="81.86"/><line class="cls-6" x1="576.88" y1="86.04" x2="578.93" y2="83.6"/><line class="cls-6" x1="579.34" y1="87.76" x2="580.93" y2="85"/><line class="cls-6" x1="582.06" y1="89.03" x2="583.15" y2="86.03"/><line class="cls-6" x1="584.96" y1="89.81" x2="585.52" y2="86.67"/><line class="cls-6" x1="587.96" y1="90.07" x2="587.96" y2="86.88"/><line class="cls-6" x1="590.95" y1="89.81" x2="590.4" y2="86.67"/><line class="cls-6" x1="593.85" y1="89.03" x2="592.76" y2="86.03"/><line class="cls-6" x1="596.57" y1="87.76" x2="594.98" y2="85"/><line class="cls-6" x1="599.03" y1="86.04" x2="596.98" y2="83.6"/><line class="cls-6" x1="601.16" y1="83.92" x2="598.71" y2="81.86"/><line class="cls-6" x1="602.88" y1="81.45" x2="600.12" y2="79.86"/><line class="cls-6" x1="604.15" y1="78.73" x2="601.15" y2="77.64"/><line class="cls-6" x1="604.93" y1="75.83" x2="601.79" y2="75.28"/><line class="cls-6" x1="605.19" y1="72.84" x2="602" y2="72.84"/><line class="cls-6" x1="604.93" y1="69.84" x2="601.79" y2="70.4"/><line class="cls-6" x1="604.15" y1="66.94" x2="601.15" y2="68.03"/><line class="cls-6" x1="602.88" y1="64.22" x2="600.12" y2="65.82"/><line class="cls-6" x1="601.16" y1="61.76" x2="598.71" y2="63.81"/><line class="cls-6" x1="599.03" y1="59.64" x2="596.98" y2="62.08"/><line class="cls-6" x1="596.57" y1="57.91" x2="594.98" y2="60.67"/><line class="cls-6" x1="593.85" y1="56.64" x2="592.76" y2="59.64"/><line class="cls-6" x1="590.95" y1="55.86" x2="590.4" y2="59.01"/><path class="cls-3" d="M613.06,78a7.23,7.23,0,0,0-1.33.13,7.79,7.79,0,0,0-7.39-5.33,7.63,7.63,0,0,0-2.71.5A9.47,9.47,0,0,0,583.94,78c0,.06,0,.12,0,.18a7.79,7.79,0,0,0,1.67,15.39h.15a7.79,7.79,0,0,0,15.12.65A7.71,7.71,0,0,0,606,96.18a7.8,7.8,0,0,0,6.87-4.1h.17a7,7,0,0,0,0-14.07Z"/><line class="cls-7" x1="584.17" y1="101.1" x2="584.17" y2="105.52"/><line class="cls-7" x1="587.96" y1="104.26" x2="587.96" y2="108.68"/><line class="cls-7" x1="595.38" y1="104.26" x2="595.38" y2="108.68"/><line class="cls-7" x1="602.95" y1="104.26" x2="602.95" y2="108.68"/><line class="cls-7" x1="591.75" y1="102.05" x2="591.75" y2="106.47"/><line class="cls-7" x1="598.96" y1="102.05" x2="598.96" y2="106.47"/><line class="cls-7" x1="609.58" y1="104.26" x2="609.58" y2="108.68"/><line class="cls-7" x1="615.27" y1="101.1" x2="615.27" y2="105.52"/><line class="cls-7" x1="606.58" y1="102.05" x2="606.58" y2="106.47"/><line class="cls-7" x1="612.27" y1="98.89" x2="612.27" y2="103.31"/><line class="cls-7" x1="617.69" y1="96.68" x2="617.69" y2="101.1"/><circle class="cls-5" cx="691.24" cy="82.11" r="15.62" transform="translate(500 751.42) rotate(-80.83)"/><line class="cls-8" x1="691.24" y1="59.69" x2="691.24" y2="63.84"/><line class="cls-8" x1="687.35" y1="60.03" x2="688.07" y2="64.12"/><line class="cls-8" x1="683.58" y1="61.04" x2="685" y2="64.94"/><line class="cls-8" x1="680.04" y1="62.7" x2="682.11" y2="66.29"/><line class="cls-8" x1="676.84" y1="64.94" x2="679.5" y2="68.12"/><line class="cls-8" x1="674.07" y1="67.7" x2="677.25" y2="70.37"/><line class="cls-8" x1="671.83" y1="70.9" x2="675.43" y2="72.97"/><line class="cls-8" x1="670.18" y1="74.44" x2="674.08" y2="75.86"/><line class="cls-8" x1="669.17" y1="78.21" x2="673.26" y2="78.94"/><line class="cls-8" x1="668.83" y1="82.11" x2="672.98" y2="82.11"/><line class="cls-8" x1="669.17" y1="86" x2="673.26" y2="85.28"/><line class="cls-8" x1="670.18" y1="89.77" x2="674.08" y2="88.35"/><line class="cls-8" x1="671.83" y1="93.31" x2="675.43" y2="91.24"/><line class="cls-8" x1="674.07" y1="96.51" x2="677.25" y2="93.85"/><line class="cls-8" x1="676.84" y1="99.28" x2="679.5" y2="96.1"/><line class="cls-8" x1="680.04" y1="101.52" x2="682.11" y2="97.92"/><line class="cls-8" x1="683.58" y1="103.17" x2="685" y2="99.27"/><line class="cls-8" x1="687.35" y1="104.18" x2="688.07" y2="100.09"/><line class="cls-8" x1="691.24" y1="104.52" x2="691.24" y2="100.37"/><line class="cls-8" x1="695.14" y1="104.18" x2="694.42" y2="100.09"/><line class="cls-8" x1="698.91" y1="103.17" x2="697.49" y2="99.27"/><line class="cls-8" x1="702.45" y1="101.52" x2="700.38" y2="97.92"/><line class="cls-8" x1="705.65" y1="99.28" x2="702.98" y2="96.1"/><line class="cls-8" x1="708.41" y1="96.51" x2="705.24" y2="93.85"/><line class="cls-8" x1="710.66" y1="93.31" x2="707.06" y2="91.24"/><line class="cls-8" x1="712.31" y1="89.77" x2="708.41" y2="88.35"/><line class="cls-8" x1="713.32" y1="86" x2="709.23" y2="85.28"/><line class="cls-8" x1="713.66" y1="82.11" x2="709.51" y2="82.11"/><line class="cls-8" x1="713.32" y1="78.21" x2="709.23" y2="78.94"/><line class="cls-8" x1="712.31" y1="74.44" x2="708.41" y2="75.86"/><line class="cls-8" x1="710.66" y1="70.9" x2="707.06" y2="72.97"/><line class="cls-8" x1="708.41" y1="67.7" x2="705.24" y2="70.37"/><line class="cls-8" x1="705.65" y1="64.94" x2="702.98" y2="68.12"/><line class="cls-8" x1="702.45" y1="62.7" x2="700.38" y2="66.29"/><line class="cls-8" x1="698.91" y1="61.04" x2="697.49" y2="64.94"/><line class="cls-8" x1="695.14" y1="60.03" x2="694.42" y2="64.12"/><circle class="cls-5" cx="479.95" cy="82.76" r="12.01"/><line class="cls-6" x1="479.95" y1="65.52" x2="479.95" y2="68.72"/><line class="cls-6" x1="476.96" y1="65.79" x2="477.51" y2="68.93"/><line class="cls-6" x1="474.05" y1="66.56" x2="475.15" y2="69.56"/><line class="cls-6" x1="471.33" y1="67.83" x2="472.93" y2="70.6"/><line class="cls-6" x1="468.87" y1="69.56" x2="470.92" y2="72"/><line class="cls-6" x1="466.75" y1="71.68" x2="469.19" y2="73.73"/><line class="cls-6" x1="465.02" y1="74.14" x2="467.79" y2="75.74"/><line class="cls-6" x1="463.75" y1="76.86" x2="466.75" y2="77.96"/><line class="cls-6" x1="462.98" y1="79.77" x2="466.12" y2="80.32"/><line class="cls-6" x1="462.72" y1="82.76" x2="465.91" y2="82.76"/><line class="cls-6" x1="462.98" y1="85.75" x2="466.12" y2="85.2"/><line class="cls-6" x1="463.75" y1="88.65" x2="466.75" y2="87.56"/><line class="cls-6" x1="465.02" y1="91.38" x2="467.79" y2="89.78"/><line class="cls-6" x1="466.75" y1="93.84" x2="469.19" y2="91.79"/><line class="cls-6" x1="468.87" y1="95.96" x2="470.92" y2="93.52"/><line class="cls-6" x1="471.33" y1="97.68" x2="472.93" y2="94.92"/><line class="cls-6" x1="474.05" y1="98.95" x2="475.15" y2="95.96"/><line class="cls-6" x1="476.96" y1="99.73" x2="477.51" y2="96.59"/><line class="cls-6" x1="479.95" y1="99.99" x2="479.95" y2="96.8"/><line class="cls-6" x1="482.94" y1="99.73" x2="482.39" y2="96.59"/><line class="cls-6" x1="485.84" y1="98.95" x2="484.75" y2="95.96"/><line class="cls-6" x1="488.57" y1="97.68" x2="486.97" y2="94.92"/><line class="cls-6" x1="491.03" y1="95.96" x2="488.98" y2="93.52"/><line class="cls-6" x1="493.15" y1="93.84" x2="490.71" y2="91.79"/><line class="cls-6" x1="494.87" y1="91.38" x2="492.11" y2="89.78"/><line class="cls-6" x1="496.14" y1="88.65" x2="493.15" y2="87.56"/><line class="cls-6" x1="496.92" y1="85.75" x2="493.78" y2="85.2"/><line class="cls-6" x1="497.18" y1="82.76" x2="493.99" y2="82.76"/><line class="cls-6" x1="496.92" y1="79.77" x2="493.78" y2="80.32"/><line class="cls-6" x1="496.14" y1="76.86" x2="493.15" y2="77.96"/><line class="cls-6" x1="494.87" y1="74.14" x2="492.11" y2="75.74"/><line class="cls-6" x1="493.15" y1="71.68" x2="490.71" y2="73.73"/><line class="cls-6" x1="491.03" y1="69.56" x2="488.98" y2="72"/><line class="cls-6" x1="488.57" y1="67.83" x2="486.97" y2="70.6"/><line class="cls-6" x1="485.84" y1="66.56" x2="484.75" y2="69.56"/><line class="cls-6" x1="482.94" y1="65.79" x2="482.39" y2="68.93"/><path class="cls-3" d="M501.91,87a7.23,7.23,0,0,0-1.33.13,7.77,7.77,0,0,0-7.38-5.33,7.68,7.68,0,0,0-2.72.5A9.47,9.47,0,0,0,472.79,87c0,.06,0,.12,0,.18a7.79,7.79,0,0,0,1.68,15.39h.14a7.79,7.79,0,0,0,15.12.65,7.79,7.79,0,0,0,12-2.16h.17a7,7,0,0,0,0-14.07Z"/><path class="cls-3" d="M59.14,76a7.2,7.2,0,0,0-1.32.13,7.8,7.8,0,0,0-7.39-5.33,7.63,7.63,0,0,0-2.71.5A9.47,9.47,0,0,0,30,76c0,.06,0,.12,0,.19a7.79,7.79,0,0,0,1.67,15.39h.15A7.79,7.79,0,0,0,47,92.17,7.76,7.76,0,0,0,59,90h.17a7,7,0,1,0,0-14.07Z"/><circle class="cls-5" cx="384.26" cy="82.11" r="15.62" transform="translate(241.95 448.36) rotate(-80.83)"/><line class="cls-8" x1="384.26" y1="59.69" x2="384.26" y2="63.84"/><line class="cls-8" x1="380.36" y1="60.03" x2="381.08" y2="64.12"/><line class="cls-8" x1="376.59" y1="61.04" x2="378.01" y2="64.94"/><line class="cls-8" x1="373.05" y1="62.7" x2="375.12" y2="66.29"/><line class="cls-8" x1="369.85" y1="64.94" x2="372.51" y2="68.12"/><line class="cls-8" x1="367.08" y1="67.7" x2="370.26" y2="70.37"/><line class="cls-8" x1="364.84" y1="70.9" x2="368.44" y2="72.97"/><line class="cls-8" x1="363.19" y1="74.44" x2="367.09" y2="75.86"/><line class="cls-8" x1="362.18" y1="78.21" x2="366.27" y2="78.94"/><line class="cls-8" x1="361.84" y1="82.11" x2="365.99" y2="82.11"/><line class="cls-8" x1="362.18" y1="86" x2="366.27" y2="85.28"/><line class="cls-8" x1="363.19" y1="89.77" x2="367.09" y2="88.35"/><line class="cls-8" x1="364.84" y1="93.31" x2="368.44" y2="91.24"/><line class="cls-8" x1="367.08" y1="96.51" x2="370.26" y2="93.85"/><line class="cls-8" x1="369.85" y1="99.28" x2="372.51" y2="96.1"/><line class="cls-8" x1="373.05" y1="101.52" x2="375.12" y2="97.92"/><line class="cls-8" x1="376.59" y1="103.17" x2="378.01" y2="99.27"/><line class="cls-8" x1="380.36" y1="104.18" x2="381.08" y2="100.09"/><line class="cls-8" x1="384.26" y1="104.52" x2="384.26" y2="100.37"/><line class="cls-8" x1="388.15" y1="104.18" x2="387.43" y2="100.09"/><line class="cls-8" x1="391.92" y1="103.17" x2="390.5" y2="99.27"/><line class="cls-8" x1="395.46" y1="101.52" x2="393.39" y2="97.92"/><line class="cls-8" x1="398.66" y1="99.28" x2="396" y2="96.1"/><line class="cls-8" x1="401.43" y1="96.51" x2="398.25" y2="93.85"/><line class="cls-8" x1="403.67" y1="93.31" x2="400.07" y2="91.24"/><line class="cls-8" x1="405.32" y1="89.77" x2="401.42" y2="88.35"/><line class="cls-8" x1="406.33" y1="86" x2="402.24" y2="85.28"/><line class="cls-8" x1="406.67" y1="82.11" x2="402.52" y2="82.11"/><line class="cls-8" x1="406.33" y1="78.21" x2="402.24" y2="78.94"/><line class="cls-8" x1="405.32" y1="74.44" x2="401.42" y2="75.86"/><line class="cls-8" x1="403.67" y1="70.9" x2="400.07" y2="72.97"/><line class="cls-8" x1="401.43" y1="67.7" x2="398.25" y2="70.37"/><line class="cls-8" x1="398.66" y1="64.94" x2="396" y2="68.12"/><line class="cls-8" x1="395.46" y1="62.7" x2="393.39" y2="66.29"/><line class="cls-8" x1="391.92" y1="61.04" x2="390.5" y2="64.94"/><line class="cls-8" x1="388.15" y1="60.03" x2="387.43" y2="64.12"/><text class="cls-9" transform="translate(552.6 35.96)">THUES<tspan class="cls-10" x="42.69" y="0">DA</tspan><tspan x="61.26" y="0">Y</tspan></text><text class="cls-9" transform="translate(449.93 35.96)">MON<tspan class="cls-10" x="34.66" y="0">DA</tspan><tspan x="53.23" y="0">Y</tspan></text><text class="cls-9" transform="translate(643.44 35.96)">WENDES<tspan class="cls-11" x="57.36" y="0">DA</tspan><tspan x="75.93" y="0">Y</tspan></text><text class="cls-9" transform="translate(8.46 37.96)">THURS<tspan class="cls-11" x="43.49" y="0">DA</tspan><tspan x="62.06" y="0">Y</tspan></text><text class="cls-9" transform="translate(125.87 37.96)">FRI<tspan class="cls-10" x="23.23" y="0">DA</tspan><tspan class="cls-12" x="41.8" y="0">Y</tspan></text><text class="cls-9" transform="translate(228.96 37.96)">S<tspan class="cls-10" x="6.84" y="0">A</tspan><tspan x="15.46" y="0">TUR</tspan><tspan class="cls-10" x="42.31" y="0">DA</tspan><tspan class="cls-12" x="60.88" y="0">Y</tspan></text><text class="cls-9" transform="translate(355.54 37.96)">SUN<tspan class="cls-10" x="25.78" y="0">DA</tspan><tspan class="cls-12" x="44.35" y="0">Y</tspan></text></g></g></g></svg>